<svg id="svg" version="1.1" xmlns="http://www.w3.org/2000/svg" xmlns:xlink="http://www.w3.org/1999/xlink" width="400" height="400" viewBox="0, 0, 400,400"><g id="svgg"><path id="path0" d="M131.200 3.450 L 131.200 6.901 121.068 6.685 C 115.496 6.566,110.707 6.610,110.426 6.784 C 110.146 6.957,109.396 6.902,108.760 6.662 C 107.099 6.035,106.033 7.093,106.658 8.749 C 106.896 9.379,106.947 10.152,106.771 10.466 C 106.595 10.780,106.485 12.784,106.526 14.919 L 106.600 18.800 99.400 18.861 C 95.440 18.895,91.120 18.885,89.800 18.840 C 88.344 18.790,87.598 18.894,87.905 19.105 C 88.491 19.509,85.991 19.441,84.329 19.007 C 82.441 18.515,81.513 19.075,81.800 20.535 C 81.996 21.535,81.953 21.674,81.592 21.200 C 81.242 20.742,81.197 21.261,81.399 23.400 C 81.800 27.641,81.832 29.544,81.500 29.338 C 81.335 29.236,81.200 29.613,81.200 30.176 C 81.200 31.008,81.008 31.200,80.176 31.200 C 79.613 31.200,79.236 31.335,79.338 31.500 C 79.544 31.832,77.641 31.800,73.400 31.399 C 71.261 31.197,70.742 31.242,71.200 31.592 C 71.673 31.952,71.529 31.995,70.515 31.796 C 69.074 31.512,68.440 32.635,69.016 34.452 C 69.451 35.821,69.520 38.506,69.105 37.905 C 68.894 37.598,68.790 38.344,68.840 39.800 C 68.980 43.872,69.212 43.600,65.600 43.600 C 63.840 43.600,62.400 43.745,62.400 43.922 C 62.400 44.099,61.144 44.214,59.609 44.177 C 56.540 44.104,56.012 44.527,56.750 46.468 C 56.954 47.004,56.973 47.706,56.792 48.028 C 56.612 48.350,56.487 50.402,56.514 52.589 L 56.564 56.564 52.589 56.514 C 50.402 56.487,48.350 56.612,48.028 56.792 C 47.706 56.973,47.004 56.954,46.468 56.750 C 44.527 56.012,44.104 56.540,44.177 59.609 C 44.214 61.144,44.099 62.400,43.922 62.400 C 43.745 62.400,43.600 63.840,43.600 65.600 C 43.600 69.212,43.872 68.980,39.800 68.840 C 38.344 68.790,37.598 68.894,37.905 69.105 C 38.491 69.509,35.991 69.441,34.329 69.007 C 32.441 68.515,31.513 69.075,31.800 70.535 C 31.996 71.535,31.953 71.674,31.592 71.200 C 31.242 70.742,31.197 71.261,31.399 73.400 C 31.800 77.641,31.832 79.544,31.500 79.338 C 31.335 79.236,31.200 82.388,31.200 86.343 C 31.200 91.582,31.330 93.577,31.680 93.693 C 32.054 93.818,32.054 93.919,31.680 94.150 C 31.416 94.314,31.200 94.257,31.200 94.024 C 31.200 93.763,30.045 93.600,28.200 93.600 C 26.550 93.600,25.200 93.736,25.200 93.902 C 25.200 94.069,23.985 94.195,22.500 94.184 C 19.231 94.158,17.476 95.743,19.040 97.307 C 19.172 97.439,19.331 98.414,19.392 99.474 C 19.472 100.866,19.404 101.178,19.146 100.600 C 18.725 99.658,18.962 104.124,19.401 105.400 C 19.622 106.045,19.592 106.084,19.244 105.600 C 18.928 105.162,18.811 106.858,18.806 111.900 C 18.801 118.200,18.739 118.801,18.100 118.806 C 17.495 118.811,17.481 118.871,18.000 119.244 C 18.485 119.593,18.447 119.624,17.800 119.409 C 16.137 118.856,13.331 118.726,11.854 119.134 C 10.734 119.443,10.121 119.433,9.580 119.095 C 8.281 118.283,6.580 119.180,6.695 120.616 C 6.831 122.302,6.826 122.434,6.555 124.106 C 6.402 125.050,6.495 125.832,6.805 126.206 C 7.076 126.532,7.141 126.800,6.949 126.800 C 6.752 126.800,6.600 158.601,6.600 200.000 C 6.600 241.399,6.752 273.200,6.949 273.200 C 7.141 273.200,7.076 273.468,6.805 273.794 C 6.495 274.168,6.402 274.950,6.555 275.894 C 6.826 277.566,6.831 277.693,6.695 279.400 C 6.622 280.327,6.758 280.588,7.296 280.545 C 7.678 280.515,7.893 280.650,7.772 280.845 C 7.652 281.039,7.879 281.171,8.277 281.136 C 8.675 281.101,11.205 281.102,13.900 281.137 L 18.800 281.200 18.806 288.100 C 18.811 293.142,18.928 294.838,19.244 294.400 C 19.592 293.916,19.622 293.955,19.401 294.600 C 18.962 295.876,18.725 300.342,19.146 299.400 C 19.404 298.822,19.472 299.134,19.392 300.526 C 19.331 301.586,19.172 302.561,19.040 302.693 C 18.548 303.186,18.823 305.121,19.461 305.651 C 20.093 306.176,21.436 306.282,28.500 306.367 L 31.200 306.400 31.200 313.624 C 31.200 317.597,31.335 320.764,31.500 320.662 C 31.832 320.456,31.800 322.359,31.399 326.600 C 31.197 328.739,31.242 329.258,31.592 328.800 C 31.950 328.330,31.990 328.494,31.779 329.560 C 31.549 330.723,31.607 330.883,32.176 330.665 C 32.585 330.507,32.743 330.569,32.584 330.825 C 32.430 331.075,32.701 331.209,33.264 331.159 C 33.779 331.113,36.315 331.104,38.900 331.138 L 43.600 331.200 43.600 334.400 C 43.600 336.160,43.745 337.600,43.922 337.600 C 44.099 337.600,44.214 338.870,44.177 340.422 C 44.122 342.709,44.217 343.202,44.675 343.026 C 45.012 342.897,45.134 342.983,44.977 343.237 C 44.821 343.490,45.017 343.633,45.456 343.586 C 45.865 343.543,48.540 343.529,51.400 343.554 L 56.600 343.600 56.666 347.700 C 56.702 349.955,56.770 352.070,56.816 352.400 C 56.862 352.730,56.786 353.450,56.646 354.000 C 56.151 355.949,56.682 356.146,62.866 356.306 C 69.591 356.479,69.024 356.157,68.895 359.733 C 68.836 361.379,68.935 362.382,69.128 362.087 C 69.462 361.575,69.382 363.807,68.979 366.200 C 68.581 368.567,69.171 368.731,78.300 368.783 C 81.140 368.800,81.200 368.821,81.200 369.824 C 81.200 370.387,81.335 370.764,81.500 370.662 C 81.832 370.456,81.800 372.359,81.399 376.600 C 81.197 378.739,81.242 379.258,81.592 378.800 C 81.950 378.330,81.990 378.494,81.779 379.560 C 81.549 380.723,81.607 380.883,82.176 380.665 C 82.585 380.507,82.743 380.569,82.584 380.825 C 82.430 381.075,82.701 381.209,83.264 381.159 C 83.779 381.113,89.240 381.104,95.400 381.138 L 106.600 381.200 106.526 385.081 C 106.485 387.216,106.595 389.220,106.771 389.534 C 106.947 389.848,106.901 390.607,106.670 391.221 C 106.192 392.487,106.846 393.675,107.961 393.569 C 108.313 393.535,113.685 393.529,119.900 393.554 L 131.200 393.600 131.200 396.800 L 131.200 400.000 200.000 400.000 L 268.800 400.000 268.800 396.800 L 268.800 393.600 280.300 393.553 C 286.625 393.527,291.954 393.533,292.142 393.567 C 293.269 393.769,293.526 392.614,293.578 387.100 C 293.607 383.984,293.678 381.389,293.734 381.332 C 293.791 381.276,299.264 381.208,305.896 381.183 C 314.585 381.149,318.055 381.005,318.314 380.668 C 318.512 380.411,318.707 377.690,318.747 374.622 C 318.788 371.555,318.872 368.995,318.933 368.933 C 318.995 368.872,321.555 368.788,324.622 368.747 C 331.575 368.655,331.073 369.149,331.166 362.308 C 331.259 355.527,330.473 356.398,336.538 356.358 C 340.079 356.335,341.602 356.186,341.606 355.862 C 341.610 355.592,341.763 355.638,341.976 355.974 C 343.002 357.596,343.490 355.672,343.567 349.708 C 343.609 346.471,343.684 343.783,343.733 343.733 C 343.783 343.684,346.471 343.609,349.708 343.567 C 355.672 343.490,357.596 343.002,355.974 341.976 C 355.638 341.763,355.592 341.610,355.862 341.606 C 356.186 341.602,356.335 340.079,356.358 336.538 C 356.398 330.476,355.537 331.266,362.208 331.175 C 365.283 331.132,368.012 330.930,368.270 330.725 C 368.860 330.257,368.991 295.905,368.407 294.814 C 368.097 294.233,367.537 294.121,365.215 294.177 C 363.667 294.214,362.400 294.099,362.400 293.922 C 362.400 293.745,358.170 293.600,353.000 293.600 L 343.600 293.600 343.561 288.700 C 343.501 281.239,343.625 281.781,342.000 281.916 C 340.943 282.004,340.747 281.932,341.200 281.622 C 341.651 281.314,341.353 281.212,340.000 281.212 C 339.010 281.212,338.409 281.345,338.664 281.507 C 338.919 281.670,337.721 281.802,336.003 281.801 C 334.284 281.801,332.960 281.665,333.062 281.500 C 333.164 281.335,332.787 281.200,332.224 281.200 L 331.200 281.200 331.138 276.500 C 331.104 273.915,331.113 271.379,331.159 270.864 C 331.209 270.301,331.075 270.030,330.825 270.184 C 330.578 270.337,330.503 270.197,330.641 269.838 C 330.918 269.117,329.183 268.552,328.101 269.011 C 327.148 269.415,323.921 269.501,324.522 269.106 C 324.785 268.933,323.710 268.839,322.133 268.895 C 318.563 269.024,318.868 269.532,318.765 263.293 C 318.717 260.382,318.531 258.000,318.351 258.000 C 318.172 258.000,318.128 257.732,318.254 257.403 C 318.577 256.563,317.358 256.200,316.114 256.767 C 315.392 257.095,314.951 257.111,314.659 256.819 C 314.089 256.249,311.871 256.289,311.280 256.880 C 310.963 257.197,310.800 257.212,310.800 256.926 C 310.800 256.621,308.247 256.555,302.200 256.705 L 293.600 256.918 293.554 251.559 C 293.529 248.611,293.543 245.865,293.586 245.456 C 293.633 245.017,293.490 244.821,293.237 244.977 C 292.983 245.134,292.897 245.012,293.026 244.675 C 293.202 244.217,292.709 244.122,290.422 244.177 C 288.870 244.214,287.600 244.099,287.600 243.922 C 287.600 243.745,286.160 243.600,284.400 243.600 L 281.200 243.600 281.138 238.900 C 281.104 236.315,281.113 233.779,281.159 233.264 C 281.209 232.701,281.075 232.430,280.825 232.584 C 280.569 232.743,280.507 232.585,280.665 232.176 C 280.883 231.607,280.723 231.549,279.560 231.779 C 278.494 231.990,278.330 231.950,278.800 231.592 C 279.258 231.242,278.739 231.197,276.600 231.399 C 272.359 231.800,270.456 231.832,270.662 231.500 C 270.764 231.335,267.597 231.200,263.624 231.200 L 256.400 231.200 256.367 228.500 C 256.282 221.436,256.176 220.093,255.651 219.461 C 255.121 218.823,253.186 218.548,252.693 219.040 C 252.561 219.172,251.586 219.331,250.526 219.392 C 249.134 219.472,248.822 219.404,249.400 219.146 C 250.342 218.725,245.876 218.962,244.600 219.401 C 243.955 219.622,243.916 219.592,244.400 219.244 C 244.919 218.871,244.905 218.811,244.300 218.806 C 243.664 218.801,243.196 211.871,243.569 207.961 C 243.675 206.846,242.487 206.192,241.221 206.670 C 240.607 206.901,239.848 206.947,239.534 206.771 C 239.220 206.595,237.216 206.485,235.081 206.526 L 231.200 206.600 231.200 200.100 L 231.200 193.600 242.700 193.537 C 249.025 193.502,254.497 193.497,254.861 193.525 C 255.870 193.604,256.707 192.440,255.974 191.976 C 255.638 191.763,255.592 191.610,255.862 191.606 C 256.186 191.602,256.335 190.079,256.358 186.538 C 256.376 183.753,256.449 181.417,256.520 181.346 C 256.591 181.275,267.594 181.205,280.971 181.191 C 302.355 181.167,305.368 181.090,305.911 180.546 C 306.397 180.060,306.421 179.860,306.022 179.614 C 305.700 179.415,305.663 179.209,305.920 179.049 C 306.155 178.904,306.339 176.757,306.357 173.939 C 306.373 171.266,306.441 169.025,306.508 168.959 C 306.574 168.893,311.974 168.806,318.509 168.766 C 326.704 168.716,330.500 168.555,330.744 168.247 C 330.939 168.001,331.132 165.283,331.175 162.208 C 331.217 159.132,331.296 156.571,331.349 156.517 C 331.403 156.463,336.511 156.402,342.700 156.381 C 350.928 156.353,354.004 156.216,354.146 155.871 C 354.284 155.533,354.450 155.560,354.733 155.965 C 355.066 156.442,355.236 156.421,355.829 155.829 C 356.419 155.239,356.440 155.070,355.965 154.764 C 355.557 154.501,355.527 154.317,355.858 154.100 C 356.158 153.904,356.331 152.083,356.357 148.834 C 356.380 146.103,356.451 143.816,356.516 143.750 C 356.582 143.685,361.937 143.609,368.418 143.582 C 375.831 143.550,380.384 143.379,380.696 143.120 C 381.411 142.527,381.404 95.045,380.688 94.520 C 380.420 94.324,378.985 94.172,377.500 94.184 C 376.015 94.195,374.800 94.069,374.800 93.902 C 374.800 93.736,373.450 93.600,371.800 93.600 L 368.800 93.600 368.783 84.500 C 368.754 68.441,368.771 68.546,366.200 68.979 C 363.807 69.382,361.575 69.462,362.087 69.128 C 362.382 68.935,361.379 68.836,359.733 68.895 C 356.157 69.024,356.479 69.591,356.306 62.866 C 356.146 56.682,355.949 56.151,354.000 56.646 C 353.450 56.786,352.730 56.862,352.400 56.816 C 352.070 56.770,349.955 56.702,347.700 56.666 L 343.600 56.600 343.554 51.400 C 343.529 48.540,343.543 45.865,343.586 45.456 C 343.633 45.017,343.490 44.821,343.237 44.977 C 342.983 45.134,342.897 45.012,343.026 44.675 C 343.202 44.217,342.709 44.122,340.422 44.177 C 338.870 44.214,337.600 44.099,337.600 43.922 C 337.600 43.745,336.160 43.600,334.400 43.600 L 331.200 43.600 331.138 38.900 C 331.104 36.315,331.113 33.779,331.159 33.264 C 331.209 32.701,331.075 32.430,330.825 32.584 C 330.569 32.743,330.507 32.585,330.665 32.176 C 330.883 31.607,330.723 31.549,329.560 31.779 C 328.494 31.990,328.330 31.950,328.800 31.592 C 329.258 31.242,328.739 31.197,326.600 31.399 C 322.359 31.800,320.456 31.832,320.662 31.500 C 320.764 31.335,320.387 31.200,319.824 31.200 C 318.821 31.200,318.800 31.140,318.783 28.300 C 318.731 19.171,318.567 18.581,316.200 18.979 C 313.976 19.353,311.571 19.465,312.045 19.172 C 312.304 19.012,308.315 18.859,303.182 18.831 C 298.048 18.804,293.798 18.732,293.738 18.671 C 293.677 18.610,293.605 16.013,293.577 12.899 C 293.522 6.540,293.276 5.894,291.210 6.674 C 290.590 6.908,289.854 6.957,289.574 6.784 C 289.293 6.610,284.504 6.566,278.932 6.685 L 268.800 6.901 268.800 3.450 L 268.800 0.000 200.000 0.000 L 131.200 0.000 131.200 3.450 M108.098 7.066 C 107.821 7.177,107.714 7.461,107.859 7.696 C 108.016 7.949,107.935 8.007,107.662 7.838 C 107.408 7.681,107.200 7.773,107.200 8.043 C 107.200 8.313,107.088 8.421,106.951 8.284 C 106.497 7.830,107.162 6.799,107.887 6.832 C 108.311 6.850,108.396 6.945,108.098 7.066 M82.977 19.767 C 82.139 20.380,81.760 20.313,82.184 19.627 C 82.329 19.392,82.741 19.200,83.100 19.200 C 83.646 19.200,83.626 19.293,82.977 19.767 M69.919 32.782 C 69.367 33.666,68.978 33.555,69.338 32.617 C 69.468 32.278,69.762 32.000,69.991 32.000 C 70.254 32.000,70.228 32.287,69.919 32.782 M57.519 45.182 C 56.967 46.066,56.578 45.955,56.938 45.017 C 57.068 44.678,57.362 44.400,57.591 44.400 C 57.854 44.400,57.828 44.687,57.519 45.182 M45.377 57.367 C 44.539 57.980,44.160 57.913,44.584 57.227 C 44.729 56.992,45.141 56.800,45.500 56.800 C 46.046 56.800,46.026 56.893,45.377 57.367 M32.977 69.767 C 32.139 70.380,31.760 70.313,32.184 69.627 C 32.329 69.392,32.741 69.200,33.100 69.200 C 33.646 69.200,33.626 69.293,32.977 69.767 M8.100 119.612 C 7.605 119.811,7.200 120.190,7.200 120.454 C 7.200 120.718,7.084 120.818,6.943 120.676 C 6.553 120.286,7.609 119.197,8.349 119.225 C 8.790 119.243,8.709 119.368,8.100 119.612 " stroke="none" fill="#64dcfc" fill-rule="evenodd"></path><path id="path1" d="M108.800 6.557 C 108.800 6.946,109.927 7.092,110.436 6.769 C 110.847 6.509,110.701 6.411,109.900 6.406 C 109.295 6.403,108.800 6.471,108.800 6.557 M121.320 6.698 C 123.255 6.772,126.315 6.771,128.120 6.697 C 129.924 6.623,128.340 6.563,124.600 6.564 C 120.860 6.564,119.384 6.625,121.320 6.698 M272.120 6.698 C 274.055 6.772,277.115 6.771,278.920 6.697 C 280.724 6.623,279.140 6.563,275.400 6.564 C 271.660 6.564,270.184 6.625,272.120 6.698 M289.200 6.557 C 289.200 6.946,290.327 7.092,290.836 6.769 C 291.247 6.509,291.101 6.411,290.300 6.406 C 289.695 6.403,289.200 6.471,289.200 6.557 M106.938 7.417 C 106.808 7.757,106.813 8.147,106.951 8.284 C 107.088 8.421,107.200 8.313,107.200 8.043 C 107.200 7.773,107.408 7.681,107.662 7.838 C 107.935 8.007,108.016 7.949,107.859 7.696 C 107.714 7.461,107.821 7.177,108.098 7.066 C 108.396 6.945,108.311 6.850,107.887 6.832 C 107.496 6.814,107.068 7.078,106.938 7.417 M106.406 9.900 C 106.411 10.701,106.509 10.847,106.769 10.436 C 106.965 10.126,107.033 9.631,106.920 9.336 C 106.596 8.490,106.399 8.706,106.406 9.900 M84.494 19.027 C 84.618 19.152,85.554 19.301,86.573 19.358 C 87.639 19.419,88.208 19.325,87.913 19.138 C 87.340 18.774,84.137 18.670,84.494 19.027 M312.087 19.138 C 311.792 19.325,312.361 19.419,313.427 19.358 C 314.446 19.301,315.382 19.152,315.506 19.027 C 315.863 18.670,312.660 18.774,312.087 19.138 M81.988 20.022 C 81.746 20.474,81.636 21.059,81.742 21.322 C 81.851 21.590,81.951 21.502,81.968 21.123 C 81.986 20.750,82.400 20.165,82.889 19.823 C 83.602 19.323,83.645 19.200,83.103 19.200 C 82.732 19.200,82.230 19.570,81.988 20.022 M81.200 26.710 C 81.200 28.053,81.335 29.236,81.501 29.339 C 81.839 29.548,81.759 24.826,81.419 24.485 C 81.298 24.365,81.200 25.366,81.200 26.710 M74.485 31.419 C 74.826 31.759,79.548 31.839,79.339 31.501 C 79.236 31.335,78.053 31.200,76.710 31.200 C 75.366 31.200,74.365 31.298,74.485 31.419 M320.661 31.501 C 320.452 31.839,325.174 31.759,325.515 31.419 C 325.635 31.298,324.634 31.200,323.290 31.200 C 321.947 31.200,320.764 31.335,320.661 31.501 M69.900 32.032 C 69.515 32.256,69.205 32.746,69.212 33.120 C 69.223 33.733,69.266 33.728,69.646 33.074 C 69.878 32.675,70.458 32.192,70.934 32.000 C 71.432 31.799,71.545 31.645,71.200 31.638 C 70.870 31.630,70.285 31.808,69.900 32.032 M68.806 35.833 C 68.809 36.695,68.959 37.631,69.138 37.913 C 69.325 38.208,69.419 37.639,69.358 36.573 C 69.229 34.275,68.798 33.698,68.806 35.833 M57.450 44.514 C 57.036 44.817,56.663 45.761,56.542 46.814 C 56.399 48.055,56.457 48.428,56.731 48.036 C 56.948 47.726,57.033 47.230,56.919 46.933 C 56.614 46.137,57.843 44.485,58.890 44.284 C 59.708 44.127,59.716 44.103,58.976 44.054 C 58.524 44.025,57.837 44.231,57.450 44.514 M45.312 56.808 C 44.448 57.156,43.654 58.988,44.152 59.485 C 44.288 59.622,44.400 59.347,44.400 58.876 C 44.400 57.915,46.102 56.600,46.933 56.919 C 47.230 57.033,47.726 56.965,48.036 56.769 C 48.795 56.289,46.522 56.321,45.312 56.808 M351.689 56.623 C 351.812 56.745,352.697 56.912,353.656 56.992 C 354.874 57.095,355.159 57.036,354.600 56.798 C 353.708 56.417,351.341 56.274,351.689 56.623 M34.494 69.027 C 34.618 69.152,35.554 69.301,36.573 69.358 C 37.639 69.419,38.208 69.325,37.913 69.138 C 37.340 68.774,34.137 68.670,34.494 69.027 M362.087 69.138 C 361.792 69.325,362.361 69.419,363.427 69.358 C 364.446 69.301,365.382 69.152,365.506 69.027 C 365.863 68.670,362.660 68.774,362.087 69.138 M31.988 70.022 C 31.746 70.474,31.636 71.059,31.742 71.322 C 31.851 71.590,31.951 71.502,31.968 71.123 C 31.986 70.750,32.400 70.165,32.889 69.823 C 33.602 69.323,33.645 69.200,33.103 69.200 C 32.732 69.200,32.230 69.570,31.988 70.022 M31.200 76.710 C 31.200 78.053,31.335 79.236,31.501 79.339 C 31.839 79.548,31.759 74.826,31.419 74.485 C 31.298 74.365,31.200 75.366,31.200 76.710 M19.829 94.629 C 19.483 94.974,19.200 95.464,19.200 95.718 C 19.200 95.971,19.472 95.790,19.804 95.315 C 20.137 94.841,20.902 94.377,21.504 94.286 L 22.600 94.120 21.529 94.060 C 20.939 94.027,20.174 94.283,19.829 94.629 M18.828 98.433 C 18.844 99.185,19.002 100.160,19.180 100.600 C 19.395 101.132,19.466 100.755,19.392 99.474 C 19.264 97.260,18.786 96.378,18.828 98.433 M18.806 104.233 C 18.809 104.655,18.995 105.270,19.218 105.600 C 19.515 106.038,19.552 105.876,19.356 105.000 C 19.027 103.529,18.798 103.210,18.806 104.233 M9.830 119.190 C 10.071 119.431,10.673 119.444,11.410 119.224 C 12.586 118.873,12.581 118.868,11.020 118.834 C 9.995 118.812,9.577 118.937,9.830 119.190 M16.033 118.944 C 16.125 119.023,16.740 119.208,17.400 119.356 C 18.276 119.552,18.438 119.515,18.000 119.218 C 17.460 118.853,15.632 118.598,16.033 118.944 M7.192 119.810 C 6.914 120.145,6.802 120.535,6.943 120.676 C 7.084 120.818,7.200 120.718,7.200 120.454 C 7.200 120.190,7.605 119.811,8.100 119.612 C 8.709 119.368,8.790 119.243,8.349 119.225 C 7.991 119.211,7.470 119.474,7.192 119.810 M6.406 122.300 C 6.411 123.101,6.509 123.247,6.769 122.836 C 6.965 122.526,7.033 122.031,6.920 121.736 C 6.596 120.890,6.399 121.106,6.406 122.300 M6.596 200.000 C 6.596 238.390,6.643 254.095,6.700 234.900 C 6.757 215.705,6.757 184.295,6.700 165.100 C 6.643 145.905,6.596 161.610,6.596 200.000 M239.200 206.557 C 239.200 206.946,240.327 207.092,240.836 206.769 C 241.247 206.509,241.101 206.411,240.300 206.406 C 239.695 206.403,239.200 206.471,239.200 206.557 M244.400 219.218 C 243.962 219.515,244.124 219.552,245.000 219.356 C 246.471 219.027,246.790 218.798,245.767 218.806 C 245.345 218.809,244.730 218.995,244.400 219.218 M249.400 219.180 C 248.868 219.395,249.245 219.466,250.526 219.392 C 251.586 219.331,252.561 219.172,252.693 219.040 C 253.046 218.687,250.334 218.802,249.400 219.180 M270.661 231.501 C 270.452 231.839,275.174 231.759,275.515 231.419 C 275.635 231.298,274.634 231.200,273.290 231.200 C 271.947 231.200,270.764 231.335,270.661 231.501 M296.920 256.698 C 298.855 256.772,301.915 256.771,303.720 256.697 C 305.524 256.623,303.940 256.563,300.200 256.564 C 296.460 256.564,294.984 256.625,296.920 256.698 M314.681 256.841 C 314.998 257.158,315.332 257.161,315.861 256.854 C 316.509 256.477,316.454 256.423,315.420 256.412 C 314.559 256.403,314.360 256.520,314.681 256.841 M324.522 269.116 C 324.259 269.283,324.839 269.405,325.812 269.387 C 326.784 269.369,327.704 269.229,327.856 269.077 C 328.234 268.699,325.120 268.736,324.522 269.116 M6.406 277.900 C 6.411 278.701,6.509 278.847,6.769 278.436 C 6.965 278.126,7.033 277.631,6.920 277.336 C 6.596 276.490,6.399 276.706,6.406 277.900 M333.062 281.500 C 332.960 281.665,334.284 281.801,336.003 281.801 C 337.721 281.802,338.919 281.670,338.664 281.507 C 338.054 281.119,333.301 281.113,333.062 281.500 M19.049 294.615 C 18.912 294.973,18.815 295.566,18.834 295.933 C 18.853 296.300,19.027 296.069,19.221 295.420 C 19.598 294.158,19.465 293.533,19.049 294.615 M19.052 299.700 C 18.739 300.870,18.730 303.003,19.040 302.693 C 19.276 302.458,19.615 298.800,19.402 298.800 C 19.342 298.800,19.185 299.205,19.052 299.700 M31.467 320.667 C 31.320 320.813,31.200 322.013,31.200 323.333 C 31.200 324.653,31.298 325.635,31.419 325.515 C 31.587 325.346,31.926 320.400,31.769 320.400 C 31.749 320.400,31.613 320.520,31.467 320.667 M56.428 352.633 C 56.444 353.275,56.610 354.160,56.798 354.600 C 57.036 355.159,57.095 354.874,56.992 353.656 C 56.825 351.666,56.386 350.870,56.428 352.633 M69.043 362.233 C 68.736 363.033,68.722 365.811,69.027 365.506 C 69.239 365.295,69.566 361.600,69.374 361.600 C 69.325 361.600,69.176 361.885,69.043 362.233 M81.467 370.667 C 81.320 370.813,81.200 372.013,81.200 373.333 C 81.200 374.653,81.298 375.635,81.419 375.515 C 81.587 375.346,81.926 370.400,81.769 370.400 C 81.749 370.400,81.613 370.520,81.467 370.667 M106.406 390.300 C 106.411 391.101,106.509 391.247,106.769 390.836 C 106.965 390.526,107.033 390.031,106.920 389.736 C 106.596 388.890,106.399 389.106,106.406 390.300 " stroke="none" fill="#68dcfc" fill-rule="evenodd"></path><path id="path2" d="M108.800 6.557 C 108.800 6.946,109.927 7.092,110.436 6.769 C 110.847 6.509,110.701 6.411,109.900 6.406 C 109.295 6.403,108.800 6.471,108.800 6.557 M121.320 6.698 C 123.255 6.772,126.315 6.771,128.120 6.697 C 129.924 6.623,128.340 6.563,124.600 6.564 C 120.860 6.564,119.384 6.625,121.320 6.698 M272.120 6.698 C 274.055 6.772,277.115 6.771,278.920 6.697 C 280.724 6.623,279.140 6.563,275.400 6.564 C 271.660 6.564,270.184 6.625,272.120 6.698 M289.200 6.557 C 289.200 6.946,290.327 7.092,290.836 6.769 C 291.247 6.509,291.101 6.411,290.300 6.406 C 289.695 6.403,289.200 6.471,289.200 6.557 M106.938 7.417 C 106.808 7.757,106.813 8.147,106.951 8.284 C 107.088 8.421,107.200 8.313,107.200 8.043 C 107.200 7.773,107.408 7.681,107.662 7.838 C 107.935 8.007,108.016 7.949,107.859 7.696 C 107.714 7.461,107.821 7.177,108.098 7.066 C 108.396 6.945,108.311 6.850,107.887 6.832 C 107.496 6.814,107.068 7.078,106.938 7.417 M106.406 9.900 C 106.411 10.701,106.509 10.847,106.769 10.436 C 106.965 10.126,107.033 9.631,106.920 9.336 C 106.596 8.490,106.399 8.706,106.406 9.900 M84.494 19.027 C 84.618 19.152,85.554 19.301,86.573 19.358 C 87.639 19.419,88.208 19.325,87.913 19.138 C 87.340 18.774,84.137 18.670,84.494 19.027 M312.087 19.138 C 311.792 19.325,312.361 19.419,313.427 19.358 C 314.446 19.301,315.382 19.152,315.506 19.027 C 315.863 18.670,312.660 18.774,312.087 19.138 M81.988 20.022 C 81.746 20.474,81.636 21.059,81.742 21.322 C 81.851 21.590,81.951 21.502,81.968 21.123 C 81.986 20.750,82.400 20.165,82.889 19.823 C 83.602 19.323,83.645 19.200,83.103 19.200 C 82.732 19.200,82.230 19.570,81.988 20.022 M81.200 26.710 C 81.200 28.053,81.335 29.236,81.501 29.339 C 81.839 29.548,81.759 24.826,81.419 24.485 C 81.298 24.365,81.200 25.366,81.200 26.710 M74.485 31.419 C 74.826 31.759,79.548 31.839,79.339 31.501 C 79.236 31.335,78.053 31.200,76.710 31.200 C 75.366 31.200,74.365 31.298,74.485 31.419 M320.661 31.501 C 320.452 31.839,325.174 31.759,325.515 31.419 C 325.635 31.298,324.634 31.200,323.290 31.200 C 321.947 31.200,320.764 31.335,320.661 31.501 M69.900 32.032 C 69.515 32.256,69.205 32.746,69.212 33.120 C 69.223 33.733,69.266 33.728,69.646 33.074 C 69.878 32.675,70.458 32.192,70.934 32.000 C 71.432 31.799,71.545 31.645,71.200 31.638 C 70.870 31.630,70.285 31.808,69.900 32.032 M68.806 35.833 C 68.809 36.695,68.959 37.631,69.138 37.913 C 69.325 38.208,69.419 37.639,69.358 36.573 C 69.229 34.275,68.798 33.698,68.806 35.833 M57.450 44.514 C 57.036 44.817,56.663 45.761,56.542 46.814 C 56.399 48.055,56.457 48.428,56.731 48.036 C 56.948 47.726,57.033 47.230,56.919 46.933 C 56.614 46.137,57.843 44.485,58.890 44.284 C 59.708 44.127,59.716 44.103,58.976 44.054 C 58.524 44.025,57.837 44.231,57.450 44.514 M45.312 56.808 C 44.448 57.156,43.654 58.988,44.152 59.485 C 44.288 59.622,44.400 59.347,44.400 58.876 C 44.400 57.915,46.102 56.600,46.933 56.919 C 47.230 57.033,47.726 56.965,48.036 56.769 C 48.795 56.289,46.522 56.321,45.312 56.808 M351.689 56.623 C 351.812 56.745,352.697 56.912,353.656 56.992 C 354.874 57.095,355.159 57.036,354.600 56.798 C 353.708 56.417,351.341 56.274,351.689 56.623 M34.494 69.027 C 34.618 69.152,35.554 69.301,36.573 69.358 C 37.639 69.419,38.208 69.325,37.913 69.138 C 37.340 68.774,34.137 68.670,34.494 69.027 M362.087 69.138 C 361.792 69.325,362.361 69.419,363.427 69.358 C 364.446 69.301,365.382 69.152,365.506 69.027 C 365.863 68.670,362.660 68.774,362.087 69.138 M31.988 70.022 C 31.746 70.474,31.636 71.059,31.742 71.322 C 31.851 71.590,31.951 71.502,31.968 71.123 C 31.986 70.750,32.400 70.165,32.889 69.823 C 33.602 69.323,33.645 69.200,33.103 69.200 C 32.732 69.200,32.230 69.570,31.988 70.022 M31.200 76.710 C 31.200 78.053,31.335 79.236,31.501 79.339 C 31.839 79.548,31.759 74.826,31.419 74.485 C 31.298 74.365,31.200 75.366,31.200 76.710 M19.829 94.629 C 19.483 94.974,19.200 95.464,19.200 95.718 C 19.200 95.971,19.472 95.790,19.804 95.315 C 20.137 94.841,20.902 94.377,21.504 94.286 L 22.600 94.120 21.529 94.060 C 20.939 94.027,20.174 94.283,19.829 94.629 M18.828 98.433 C 18.844 99.185,19.002 100.160,19.180 100.600 C 19.395 101.132,19.466 100.755,19.392 99.474 C 19.264 97.260,18.786 96.378,18.828 98.433 M18.806 104.233 C 18.809 104.655,18.995 105.270,19.218 105.600 C 19.515 106.038,19.552 105.876,19.356 105.000 C 19.027 103.529,18.798 103.210,18.806 104.233 M9.830 119.190 C 10.071 119.431,10.673 119.444,11.410 119.224 C 12.586 118.873,12.581 118.868,11.020 118.834 C 9.995 118.812,9.577 118.937,9.830 119.190 M16.033 118.944 C 16.125 119.023,16.740 119.208,17.400 119.356 C 18.276 119.552,18.438 119.515,18.000 119.218 C 17.460 118.853,15.632 118.598,16.033 118.944 M7.192 119.810 C 6.914 120.145,6.802 120.535,6.943 120.676 C 7.084 120.818,7.200 120.718,7.200 120.454 C 7.200 120.190,7.605 119.811,8.100 119.612 C 8.709 119.368,8.790 119.243,8.349 119.225 C 7.991 119.211,7.470 119.474,7.192 119.810 M6.406 122.300 C 6.411 123.101,6.509 123.247,6.769 122.836 C 6.965 122.526,7.033 122.031,6.920 121.736 C 6.596 120.890,6.399 121.106,6.406 122.300 M6.596 200.000 C 6.596 238.390,6.643 254.095,6.700 234.900 C 6.757 215.705,6.757 184.295,6.700 165.100 C 6.643 145.905,6.596 161.610,6.596 200.000 M239.200 206.557 C 239.200 206.946,240.327 207.092,240.836 206.769 C 241.247 206.509,241.101 206.411,240.300 206.406 C 239.695 206.403,239.200 206.471,239.200 206.557 M244.400 219.218 C 243.962 219.515,244.124 219.552,245.000 219.356 C 246.471 219.027,246.790 218.798,245.767 218.806 C 245.345 218.809,244.730 218.995,244.400 219.218 M249.400 219.180 C 248.868 219.395,249.245 219.466,250.526 219.392 C 251.586 219.331,252.561 219.172,252.693 219.040 C 253.046 218.687,250.334 218.802,249.400 219.180 M270.661 231.501 C 270.452 231.839,275.174 231.759,275.515 231.419 C 275.635 231.298,274.634 231.200,273.290 231.200 C 271.947 231.200,270.764 231.335,270.661 231.501 M296.920 256.698 C 298.855 256.772,301.915 256.771,303.720 256.697 C 305.524 256.623,303.940 256.563,300.200 256.564 C 296.460 256.564,294.984 256.625,296.920 256.698 M314.681 256.841 C 314.998 257.158,315.332 257.161,315.861 256.854 C 316.509 256.477,316.454 256.423,315.420 256.412 C 314.559 256.403,314.360 256.520,314.681 256.841 M324.522 269.116 C 324.259 269.283,324.839 269.405,325.812 269.387 C 326.784 269.369,327.704 269.229,327.856 269.077 C 328.234 268.699,325.120 268.736,324.522 269.116 M6.406 277.900 C 6.411 278.701,6.509 278.847,6.769 278.436 C 6.965 278.126,7.033 277.631,6.920 277.336 C 6.596 276.490,6.399 276.706,6.406 277.900 M333.062 281.500 C 332.960 281.665,334.284 281.801,336.003 281.801 C 337.721 281.802,338.919 281.670,338.664 281.507 C 338.054 281.119,333.301 281.113,333.062 281.500 M19.049 294.615 C 18.912 294.973,18.815 295.566,18.834 295.933 C 18.853 296.300,19.027 296.069,19.221 295.420 C 19.598 294.158,19.465 293.533,19.049 294.615 M19.052 299.700 C 18.739 300.870,18.730 303.003,19.040 302.693 C 19.276 302.458,19.615 298.800,19.402 298.800 C 19.342 298.800,19.185 299.205,19.052 299.700 M31.467 320.667 C 31.320 320.813,31.200 322.013,31.200 323.333 C 31.200 324.653,31.298 325.635,31.419 325.515 C 31.587 325.346,31.926 320.400,31.769 320.400 C 31.749 320.400,31.613 320.520,31.467 320.667 M56.428 352.633 C 56.444 353.275,56.610 354.160,56.798 354.600 C 57.036 355.159,57.095 354.874,56.992 353.656 C 56.825 351.666,56.386 350.870,56.428 352.633 M69.043 362.233 C 68.736 363.033,68.722 365.811,69.027 365.506 C 69.239 365.295,69.566 361.600,69.374 361.600 C 69.325 361.600,69.176 361.885,69.043 362.233 M81.467 370.667 C 81.320 370.813,81.200 372.013,81.200 373.333 C 81.200 374.653,81.298 375.635,81.419 375.515 C 81.587 375.346,81.926 370.400,81.769 370.400 C 81.749 370.400,81.613 370.520,81.467 370.667 M106.406 390.300 C 106.411 391.101,106.509 391.247,106.769 390.836 C 106.965 390.526,107.033 390.031,106.920 389.736 C 106.596 388.890,106.399 389.106,106.406 390.300 " stroke="none" fill="#68dcfc" fill-rule="evenodd"></path><path id="path3" d="M108.800 6.557 C 108.800 6.946,109.927 7.092,110.436 6.769 C 110.847 6.509,110.701 6.411,109.900 6.406 C 109.295 6.403,108.800 6.471,108.800 6.557 M121.320 6.698 C 123.255 6.772,126.315 6.771,128.120 6.697 C 129.924 6.623,128.340 6.563,124.600 6.564 C 120.860 6.564,119.384 6.625,121.320 6.698 M272.120 6.698 C 274.055 6.772,277.115 6.771,278.920 6.697 C 280.724 6.623,279.140 6.563,275.400 6.564 C 271.660 6.564,270.184 6.625,272.120 6.698 M289.200 6.557 C 289.200 6.946,290.327 7.092,290.836 6.769 C 291.247 6.509,291.101 6.411,290.300 6.406 C 289.695 6.403,289.200 6.471,289.200 6.557 M106.938 7.417 C 106.808 7.757,106.813 8.147,106.951 8.284 C 107.088 8.421,107.200 8.313,107.200 8.043 C 107.200 7.773,107.408 7.681,107.662 7.838 C 107.935 8.007,108.016 7.949,107.859 7.696 C 107.714 7.461,107.821 7.177,108.098 7.066 C 108.396 6.945,108.311 6.850,107.887 6.832 C 107.496 6.814,107.068 7.078,106.938 7.417 M106.406 9.900 C 106.411 10.701,106.509 10.847,106.769 10.436 C 106.965 10.126,107.033 9.631,106.920 9.336 C 106.596 8.490,106.399 8.706,106.406 9.900 M84.494 19.027 C 84.618 19.152,85.554 19.301,86.573 19.358 C 87.639 19.419,88.208 19.325,87.913 19.138 C 87.340 18.774,84.137 18.670,84.494 19.027 M312.087 19.138 C 311.792 19.325,312.361 19.419,313.427 19.358 C 314.446 19.301,315.382 19.152,315.506 19.027 C 315.863 18.670,312.660 18.774,312.087 19.138 M81.988 20.022 C 81.746 20.474,81.636 21.059,81.742 21.322 C 81.851 21.590,81.951 21.502,81.968 21.123 C 81.986 20.750,82.400 20.165,82.889 19.823 C 83.602 19.323,83.645 19.200,83.103 19.200 C 82.732 19.200,82.230 19.570,81.988 20.022 M81.200 26.710 C 81.200 28.053,81.335 29.236,81.501 29.339 C 81.839 29.548,81.759 24.826,81.419 24.485 C 81.298 24.365,81.200 25.366,81.200 26.710 M74.485 31.419 C 74.826 31.759,79.548 31.839,79.339 31.501 C 79.236 31.335,78.053 31.200,76.710 31.200 C 75.366 31.200,74.365 31.298,74.485 31.419 M320.661 31.501 C 320.452 31.839,325.174 31.759,325.515 31.419 C 325.635 31.298,324.634 31.200,323.290 31.200 C 321.947 31.200,320.764 31.335,320.661 31.501 M69.900 32.032 C 69.515 32.256,69.205 32.746,69.212 33.120 C 69.223 33.733,69.266 33.728,69.646 33.074 C 69.878 32.675,70.458 32.192,70.934 32.000 C 71.432 31.799,71.545 31.645,71.200 31.638 C 70.870 31.630,70.285 31.808,69.900 32.032 M68.806 35.833 C 68.809 36.695,68.959 37.631,69.138 37.913 C 69.325 38.208,69.419 37.639,69.358 36.573 C 69.229 34.275,68.798 33.698,68.806 35.833 M57.450 44.514 C 57.036 44.817,56.663 45.761,56.542 46.814 C 56.399 48.055,56.457 48.428,56.731 48.036 C 56.948 47.726,57.033 47.230,56.919 46.933 C 56.614 46.137,57.843 44.485,58.890 44.284 C 59.708 44.127,59.716 44.103,58.976 44.054 C 58.524 44.025,57.837 44.231,57.450 44.514 M45.312 56.808 C 44.448 57.156,43.654 58.988,44.152 59.485 C 44.288 59.622,44.400 59.347,44.400 58.876 C 44.400 57.915,46.102 56.600,46.933 56.919 C 47.230 57.033,47.726 56.965,48.036 56.769 C 48.795 56.289,46.522 56.321,45.312 56.808 M351.689 56.623 C 351.812 56.745,352.697 56.912,353.656 56.992 C 354.874 57.095,355.159 57.036,354.600 56.798 C 353.708 56.417,351.341 56.274,351.689 56.623 M34.494 69.027 C 34.618 69.152,35.554 69.301,36.573 69.358 C 37.639 69.419,38.208 69.325,37.913 69.138 C 37.340 68.774,34.137 68.670,34.494 69.027 M362.087 69.138 C 361.792 69.325,362.361 69.419,363.427 69.358 C 364.446 69.301,365.382 69.152,365.506 69.027 C 365.863 68.670,362.660 68.774,362.087 69.138 M31.988 70.022 C 31.746 70.474,31.636 71.059,31.742 71.322 C 31.851 71.590,31.951 71.502,31.968 71.123 C 31.986 70.750,32.400 70.165,32.889 69.823 C 33.602 69.323,33.645 69.200,33.103 69.200 C 32.732 69.200,32.230 69.570,31.988 70.022 M31.200 76.710 C 31.200 78.053,31.335 79.236,31.501 79.339 C 31.839 79.548,31.759 74.826,31.419 74.485 C 31.298 74.365,31.200 75.366,31.200 76.710 M19.829 94.629 C 19.483 94.974,19.200 95.464,19.200 95.718 C 19.200 95.971,19.472 95.790,19.804 95.315 C 20.137 94.841,20.902 94.377,21.504 94.286 L 22.600 94.120 21.529 94.060 C 20.939 94.027,20.174 94.283,19.829 94.629 M18.828 98.433 C 18.844 99.185,19.002 100.160,19.180 100.600 C 19.395 101.132,19.466 100.755,19.392 99.474 C 19.264 97.260,18.786 96.378,18.828 98.433 M18.806 104.233 C 18.809 104.655,18.995 105.270,19.218 105.600 C 19.515 106.038,19.552 105.876,19.356 105.000 C 19.027 103.529,18.798 103.210,18.806 104.233 M9.830 119.190 C 10.071 119.431,10.673 119.444,11.410 119.224 C 12.586 118.873,12.581 118.868,11.020 118.834 C 9.995 118.812,9.577 118.937,9.830 119.190 M16.033 118.944 C 16.125 119.023,16.740 119.208,17.400 119.356 C 18.276 119.552,18.438 119.515,18.000 119.218 C 17.460 118.853,15.632 118.598,16.033 118.944 M7.192 119.810 C 6.914 120.145,6.802 120.535,6.943 120.676 C 7.084 120.818,7.200 120.718,7.200 120.454 C 7.200 120.190,7.605 119.811,8.100 119.612 C 8.709 119.368,8.790 119.243,8.349 119.225 C 7.991 119.211,7.470 119.474,7.192 119.810 M6.406 122.300 C 6.411 123.101,6.509 123.247,6.769 122.836 C 6.965 122.526,7.033 122.031,6.920 121.736 C 6.596 120.890,6.399 121.106,6.406 122.300 M6.596 200.000 C 6.596 238.390,6.643 254.095,6.700 234.900 C 6.757 215.705,6.757 184.295,6.700 165.100 C 6.643 145.905,6.596 161.610,6.596 200.000 M239.200 206.557 C 239.200 206.946,240.327 207.092,240.836 206.769 C 241.247 206.509,241.101 206.411,240.300 206.406 C 239.695 206.403,239.200 206.471,239.200 206.557 M244.400 219.218 C 243.962 219.515,244.124 219.552,245.000 219.356 C 246.471 219.027,246.790 218.798,245.767 218.806 C 245.345 218.809,244.730 218.995,244.400 219.218 M249.400 219.180 C 248.868 219.395,249.245 219.466,250.526 219.392 C 251.586 219.331,252.561 219.172,252.693 219.040 C 253.046 218.687,250.334 218.802,249.400 219.180 M270.661 231.501 C 270.452 231.839,275.174 231.759,275.515 231.419 C 275.635 231.298,274.634 231.200,273.290 231.200 C 271.947 231.200,270.764 231.335,270.661 231.501 M296.920 256.698 C 298.855 256.772,301.915 256.771,303.720 256.697 C 305.524 256.623,303.940 256.563,300.200 256.564 C 296.460 256.564,294.984 256.625,296.920 256.698 M314.681 256.841 C 314.998 257.158,315.332 257.161,315.861 256.854 C 316.509 256.477,316.454 256.423,315.420 256.412 C 314.559 256.403,314.360 256.520,314.681 256.841 M324.522 269.116 C 324.259 269.283,324.839 269.405,325.812 269.387 C 326.784 269.369,327.704 269.229,327.856 269.077 C 328.234 268.699,325.120 268.736,324.522 269.116 M6.406 277.900 C 6.411 278.701,6.509 278.847,6.769 278.436 C 6.965 278.126,7.033 277.631,6.920 277.336 C 6.596 276.490,6.399 276.706,6.406 277.900 M333.062 281.500 C 332.960 281.665,334.284 281.801,336.003 281.801 C 337.721 281.802,338.919 281.670,338.664 281.507 C 338.054 281.119,333.301 281.113,333.062 281.500 M19.049 294.615 C 18.912 294.973,18.815 295.566,18.834 295.933 C 18.853 296.300,19.027 296.069,19.221 295.420 C 19.598 294.158,19.465 293.533,19.049 294.615 M19.052 299.700 C 18.739 300.870,18.730 303.003,19.040 302.693 C 19.276 302.458,19.615 298.800,19.402 298.800 C 19.342 298.800,19.185 299.205,19.052 299.700 M31.467 320.667 C 31.320 320.813,31.200 322.013,31.200 323.333 C 31.200 324.653,31.298 325.635,31.419 325.515 C 31.587 325.346,31.926 320.400,31.769 320.400 C 31.749 320.400,31.613 320.520,31.467 320.667 M56.428 352.633 C 56.444 353.275,56.610 354.160,56.798 354.600 C 57.036 355.159,57.095 354.874,56.992 353.656 C 56.825 351.666,56.386 350.870,56.428 352.633 M69.043 362.233 C 68.736 363.033,68.722 365.811,69.027 365.506 C 69.239 365.295,69.566 361.600,69.374 361.600 C 69.325 361.600,69.176 361.885,69.043 362.233 M81.467 370.667 C 81.320 370.813,81.200 372.013,81.200 373.333 C 81.200 374.653,81.298 375.635,81.419 375.515 C 81.587 375.346,81.926 370.400,81.769 370.400 C 81.749 370.400,81.613 370.520,81.467 370.667 M106.406 390.300 C 106.411 391.101,106.509 391.247,106.769 390.836 C 106.965 390.526,107.033 390.031,106.920 389.736 C 106.596 388.890,106.399 389.106,106.406 390.300 " stroke="none" fill="#68dcfc" fill-rule="evenodd"></path><path id="path4" d="M108.800 6.557 C 108.800 6.946,109.927 7.092,110.436 6.769 C 110.847 6.509,110.701 6.411,109.900 6.406 C 109.295 6.403,108.800 6.471,108.800 6.557 M121.320 6.698 C 123.255 6.772,126.315 6.771,128.120 6.697 C 129.924 6.623,128.340 6.563,124.600 6.564 C 120.860 6.564,119.384 6.625,121.320 6.698 M272.120 6.698 C 274.055 6.772,277.115 6.771,278.920 6.697 C 280.724 6.623,279.140 6.563,275.400 6.564 C 271.660 6.564,270.184 6.625,272.120 6.698 M289.200 6.557 C 289.200 6.946,290.327 7.092,290.836 6.769 C 291.247 6.509,291.101 6.411,290.300 6.406 C 289.695 6.403,289.200 6.471,289.200 6.557 M106.938 7.417 C 106.808 7.757,106.813 8.147,106.951 8.284 C 107.088 8.421,107.200 8.313,107.200 8.043 C 107.200 7.773,107.408 7.681,107.662 7.838 C 107.935 8.007,108.016 7.949,107.859 7.696 C 107.714 7.461,107.821 7.177,108.098 7.066 C 108.396 6.945,108.311 6.850,107.887 6.832 C 107.496 6.814,107.068 7.078,106.938 7.417 M106.406 9.900 C 106.411 10.701,106.509 10.847,106.769 10.436 C 106.965 10.126,107.033 9.631,106.920 9.336 C 106.596 8.490,106.399 8.706,106.406 9.900 M84.494 19.027 C 84.618 19.152,85.554 19.301,86.573 19.358 C 87.639 19.419,88.208 19.325,87.913 19.138 C 87.340 18.774,84.137 18.670,84.494 19.027 M312.087 19.138 C 311.792 19.325,312.361 19.419,313.427 19.358 C 314.446 19.301,315.382 19.152,315.506 19.027 C 315.863 18.670,312.660 18.774,312.087 19.138 M81.988 20.022 C 81.746 20.474,81.636 21.059,81.742 21.322 C 81.851 21.590,81.951 21.502,81.968 21.123 C 81.986 20.750,82.400 20.165,82.889 19.823 C 83.602 19.323,83.645 19.200,83.103 19.200 C 82.732 19.200,82.230 19.570,81.988 20.022 M81.200 26.710 C 81.200 28.053,81.335 29.236,81.501 29.339 C 81.839 29.548,81.759 24.826,81.419 24.485 C 81.298 24.365,81.200 25.366,81.200 26.710 M74.485 31.419 C 74.826 31.759,79.548 31.839,79.339 31.501 C 79.236 31.335,78.053 31.200,76.710 31.200 C 75.366 31.200,74.365 31.298,74.485 31.419 M320.661 31.501 C 320.452 31.839,325.174 31.759,325.515 31.419 C 325.635 31.298,324.634 31.200,323.290 31.200 C 321.947 31.200,320.764 31.335,320.661 31.501 M69.900 32.032 C 69.515 32.256,69.205 32.746,69.212 33.120 C 69.223 33.733,69.266 33.728,69.646 33.074 C 69.878 32.675,70.458 32.192,70.934 32.000 C 71.432 31.799,71.545 31.645,71.200 31.638 C 70.870 31.630,70.285 31.808,69.900 32.032 M68.806 35.833 C 68.809 36.695,68.959 37.631,69.138 37.913 C 69.325 38.208,69.419 37.639,69.358 36.573 C 69.229 34.275,68.798 33.698,68.806 35.833 M57.450 44.514 C 57.036 44.817,56.663 45.761,56.542 46.814 C 56.399 48.055,56.457 48.428,56.731 48.036 C 56.948 47.726,57.033 47.230,56.919 46.933 C 56.614 46.137,57.843 44.485,58.890 44.284 C 59.708 44.127,59.716 44.103,58.976 44.054 C 58.524 44.025,57.837 44.231,57.450 44.514 M45.312 56.808 C 44.448 57.156,43.654 58.988,44.152 59.485 C 44.288 59.622,44.400 59.347,44.400 58.876 C 44.400 57.915,46.102 56.600,46.933 56.919 C 47.230 57.033,47.726 56.965,48.036 56.769 C 48.795 56.289,46.522 56.321,45.312 56.808 M351.689 56.623 C 351.812 56.745,352.697 56.912,353.656 56.992 C 354.874 57.095,355.159 57.036,354.600 56.798 C 353.708 56.417,351.341 56.274,351.689 56.623 M34.494 69.027 C 34.618 69.152,35.554 69.301,36.573 69.358 C 37.639 69.419,38.208 69.325,37.913 69.138 C 37.340 68.774,34.137 68.670,34.494 69.027 M362.087 69.138 C 361.792 69.325,362.361 69.419,363.427 69.358 C 364.446 69.301,365.382 69.152,365.506 69.027 C 365.863 68.670,362.660 68.774,362.087 69.138 M31.988 70.022 C 31.746 70.474,31.636 71.059,31.742 71.322 C 31.851 71.590,31.951 71.502,31.968 71.123 C 31.986 70.750,32.400 70.165,32.889 69.823 C 33.602 69.323,33.645 69.200,33.103 69.200 C 32.732 69.200,32.230 69.570,31.988 70.022 M31.200 76.710 C 31.200 78.053,31.335 79.236,31.501 79.339 C 31.839 79.548,31.759 74.826,31.419 74.485 C 31.298 74.365,31.200 75.366,31.200 76.710 M19.829 94.629 C 19.483 94.974,19.200 95.464,19.200 95.718 C 19.200 95.971,19.472 95.790,19.804 95.315 C 20.137 94.841,20.902 94.377,21.504 94.286 L 22.600 94.120 21.529 94.060 C 20.939 94.027,20.174 94.283,19.829 94.629 M18.828 98.433 C 18.844 99.185,19.002 100.160,19.180 100.600 C 19.395 101.132,19.466 100.755,19.392 99.474 C 19.264 97.260,18.786 96.378,18.828 98.433 M18.806 104.233 C 18.809 104.655,18.995 105.270,19.218 105.600 C 19.515 106.038,19.552 105.876,19.356 105.000 C 19.027 103.529,18.798 103.210,18.806 104.233 M9.830 119.190 C 10.071 119.431,10.673 119.444,11.410 119.224 C 12.586 118.873,12.581 118.868,11.020 118.834 C 9.995 118.812,9.577 118.937,9.830 119.190 M16.033 118.944 C 16.125 119.023,16.740 119.208,17.400 119.356 C 18.276 119.552,18.438 119.515,18.000 119.218 C 17.460 118.853,15.632 118.598,16.033 118.944 M7.192 119.810 C 6.914 120.145,6.802 120.535,6.943 120.676 C 7.084 120.818,7.200 120.718,7.200 120.454 C 7.200 120.190,7.605 119.811,8.100 119.612 C 8.709 119.368,8.790 119.243,8.349 119.225 C 7.991 119.211,7.470 119.474,7.192 119.810 M6.406 122.300 C 6.411 123.101,6.509 123.247,6.769 122.836 C 6.965 122.526,7.033 122.031,6.920 121.736 C 6.596 120.890,6.399 121.106,6.406 122.300 M6.596 200.000 C 6.596 238.390,6.643 254.095,6.700 234.900 C 6.757 215.705,6.757 184.295,6.700 165.100 C 6.643 145.905,6.596 161.610,6.596 200.000 M239.200 206.557 C 239.200 206.946,240.327 207.092,240.836 206.769 C 241.247 206.509,241.101 206.411,240.300 206.406 C 239.695 206.403,239.200 206.471,239.200 206.557 M244.400 219.218 C 243.962 219.515,244.124 219.552,245.000 219.356 C 246.471 219.027,246.790 218.798,245.767 218.806 C 245.345 218.809,244.730 218.995,244.400 219.218 M249.400 219.180 C 248.868 219.395,249.245 219.466,250.526 219.392 C 251.586 219.331,252.561 219.172,252.693 219.040 C 253.046 218.687,250.334 218.802,249.400 219.180 M270.661 231.501 C 270.452 231.839,275.174 231.759,275.515 231.419 C 275.635 231.298,274.634 231.200,273.290 231.200 C 271.947 231.200,270.764 231.335,270.661 231.501 M296.920 256.698 C 298.855 256.772,301.915 256.771,303.720 256.697 C 305.524 256.623,303.940 256.563,300.200 256.564 C 296.460 256.564,294.984 256.625,296.920 256.698 M314.681 256.841 C 314.998 257.158,315.332 257.161,315.861 256.854 C 316.509 256.477,316.454 256.423,315.420 256.412 C 314.559 256.403,314.360 256.520,314.681 256.841 M324.522 269.116 C 324.259 269.283,324.839 269.405,325.812 269.387 C 326.784 269.369,327.704 269.229,327.856 269.077 C 328.234 268.699,325.120 268.736,324.522 269.116 M6.406 277.900 C 6.411 278.701,6.509 278.847,6.769 278.436 C 6.965 278.126,7.033 277.631,6.920 277.336 C 6.596 276.490,6.399 276.706,6.406 277.900 M333.062 281.500 C 332.960 281.665,334.284 281.801,336.003 281.801 C 337.721 281.802,338.919 281.670,338.664 281.507 C 338.054 281.119,333.301 281.113,333.062 281.500 M19.049 294.615 C 18.912 294.973,18.815 295.566,18.834 295.933 C 18.853 296.300,19.027 296.069,19.221 295.420 C 19.598 294.158,19.465 293.533,19.049 294.615 M19.052 299.700 C 18.739 300.870,18.730 303.003,19.040 302.693 C 19.276 302.458,19.615 298.800,19.402 298.800 C 19.342 298.800,19.185 299.205,19.052 299.700 M31.467 320.667 C 31.320 320.813,31.200 322.013,31.200 323.333 C 31.200 324.653,31.298 325.635,31.419 325.515 C 31.587 325.346,31.926 320.400,31.769 320.400 C 31.749 320.400,31.613 320.520,31.467 320.667 M56.428 352.633 C 56.444 353.275,56.610 354.160,56.798 354.600 C 57.036 355.159,57.095 354.874,56.992 353.656 C 56.825 351.666,56.386 350.870,56.428 352.633 M69.043 362.233 C 68.736 363.033,68.722 365.811,69.027 365.506 C 69.239 365.295,69.566 361.600,69.374 361.600 C 69.325 361.600,69.176 361.885,69.043 362.233 M81.467 370.667 C 81.320 370.813,81.200 372.013,81.200 373.333 C 81.200 374.653,81.298 375.635,81.419 375.515 C 81.587 375.346,81.926 370.400,81.769 370.400 C 81.749 370.400,81.613 370.520,81.467 370.667 M106.406 390.300 C 106.411 391.101,106.509 391.247,106.769 390.836 C 106.965 390.526,107.033 390.031,106.920 389.736 C 106.596 388.890,106.399 389.106,106.406 390.300 " stroke="none" fill="#68dcfc" fill-rule="evenodd"></path></g></svg>